<mxfile host="app.diagrams.net" modified="2024-02-06T04:14:24.543Z" agent="Mozilla/5.0 (Windows NT 10.0; Win64; x64) AppleWebKit/537.36 (KHTML, like Gecko) Chrome/121.0.0.0 Safari/537.36" etag="QGag89q8_nipbNutMSl4" version="23.1.1" type="github">
  <diagram name="Page-1" id="rikRxOEzmj9urvbiknJa">
    <mxGraphModel dx="880" dy="478" grid="1" gridSize="10" guides="1" tooltips="1" connect="1" arrows="1" fold="1" page="1" pageScale="1" pageWidth="850" pageHeight="1100" math="0" shadow="0">
      <root>
        <mxCell id="0" />
        <mxCell id="1" parent="0" />
        <mxCell id="DrzQErr-66qLM0zfuC4E-1" value="Pengunjung" style="shape=umlActor;verticalLabelPosition=bottom;verticalAlign=top;html=1;outlineConnect=0;" vertex="1" parent="1">
          <mxGeometry x="90" y="200" width="80" height="200" as="geometry" />
        </mxCell>
        <mxCell id="DrzQErr-66qLM0zfuC4E-3" value="Pustakawan" style="shape=umlActor;verticalLabelPosition=bottom;verticalAlign=top;html=1;outlineConnect=0;" vertex="1" parent="1">
          <mxGeometry x="670" y="200" width="80" height="200" as="geometry" />
        </mxCell>
        <mxCell id="DrzQErr-66qLM0zfuC4E-24" value="" style="group" vertex="1" connectable="0" parent="1">
          <mxGeometry x="280" y="80" width="280" height="440" as="geometry" />
        </mxCell>
        <mxCell id="DrzQErr-66qLM0zfuC4E-2" value="" style="rounded=0;whiteSpace=wrap;html=1;" vertex="1" parent="DrzQErr-66qLM0zfuC4E-24">
          <mxGeometry width="280" height="440" as="geometry" />
        </mxCell>
        <mxCell id="DrzQErr-66qLM0zfuC4E-4" value="Perpus Digital" style="text;html=1;strokeColor=none;fillColor=none;align=center;verticalAlign=middle;whiteSpace=wrap;rounded=0;" vertex="1" parent="DrzQErr-66qLM0zfuC4E-24">
          <mxGeometry x="85" y="10" width="100" height="30" as="geometry" />
        </mxCell>
        <mxCell id="DrzQErr-66qLM0zfuC4E-5" value="" style="ellipse;whiteSpace=wrap;html=1;" vertex="1" parent="DrzQErr-66qLM0zfuC4E-24">
          <mxGeometry x="40" y="60" width="196.25" height="60" as="geometry" />
        </mxCell>
        <mxCell id="DrzQErr-66qLM0zfuC4E-7" value="" style="ellipse;whiteSpace=wrap;html=1;" vertex="1" parent="DrzQErr-66qLM0zfuC4E-24">
          <mxGeometry x="43.75" y="150" width="192.5" height="60" as="geometry" />
        </mxCell>
        <mxCell id="DrzQErr-66qLM0zfuC4E-8" value="" style="ellipse;whiteSpace=wrap;html=1;" vertex="1" parent="DrzQErr-66qLM0zfuC4E-24">
          <mxGeometry x="43.75" y="240" width="192.5" height="60" as="geometry" />
        </mxCell>
        <mxCell id="DrzQErr-66qLM0zfuC4E-9" value="" style="ellipse;whiteSpace=wrap;html=1;" vertex="1" parent="DrzQErr-66qLM0zfuC4E-24">
          <mxGeometry x="43.75" y="330" width="192.5" height="60" as="geometry" />
        </mxCell>
        <mxCell id="DrzQErr-66qLM0zfuC4E-10" value="Form Pengujian" style="text;html=1;strokeColor=none;fillColor=none;align=center;verticalAlign=middle;whiteSpace=wrap;rounded=0;" vertex="1" parent="DrzQErr-66qLM0zfuC4E-24">
          <mxGeometry x="80" y="75" width="120" height="30" as="geometry" />
        </mxCell>
        <mxCell id="DrzQErr-66qLM0zfuC4E-11" value="Pencarian buku" style="text;html=1;strokeColor=none;fillColor=none;align=center;verticalAlign=middle;whiteSpace=wrap;rounded=0;" vertex="1" parent="DrzQErr-66qLM0zfuC4E-24">
          <mxGeometry x="87.5" y="165" width="105" height="30" as="geometry" />
        </mxCell>
        <mxCell id="DrzQErr-66qLM0zfuC4E-12" value="Detail Buku" style="text;html=1;strokeColor=none;fillColor=none;align=center;verticalAlign=middle;whiteSpace=wrap;rounded=0;" vertex="1" parent="DrzQErr-66qLM0zfuC4E-24">
          <mxGeometry x="97.5" y="255" width="85" height="30" as="geometry" />
        </mxCell>
        <mxCell id="DrzQErr-66qLM0zfuC4E-13" value="Laporan Statistik" style="text;html=1;strokeColor=none;fillColor=none;align=center;verticalAlign=middle;whiteSpace=wrap;rounded=0;" vertex="1" parent="DrzQErr-66qLM0zfuC4E-24">
          <mxGeometry x="85" y="345" width="110" height="30" as="geometry" />
        </mxCell>
        <mxCell id="DrzQErr-66qLM0zfuC4E-30" value="" style="endArrow=none;html=1;rounded=0;entryX=0.031;entryY=0.317;entryDx=0;entryDy=0;entryPerimeter=0;" edge="1" parent="DrzQErr-66qLM0zfuC4E-24" target="DrzQErr-66qLM0zfuC4E-5">
          <mxGeometry width="50" height="50" relative="1" as="geometry">
            <mxPoint x="-125" y="160" as="sourcePoint" />
            <mxPoint x="-75" y="110" as="targetPoint" />
            <Array as="points">
              <mxPoint x="-45" y="80" />
            </Array>
          </mxGeometry>
        </mxCell>
        <mxCell id="DrzQErr-66qLM0zfuC4E-31" value="" style="endArrow=none;html=1;rounded=0;entryX=0;entryY=0.5;entryDx=0;entryDy=0;" edge="1" parent="1" target="DrzQErr-66qLM0zfuC4E-7">
          <mxGeometry width="50" height="50" relative="1" as="geometry">
            <mxPoint x="160" y="300" as="sourcePoint" />
            <mxPoint x="210" y="250" as="targetPoint" />
          </mxGeometry>
        </mxCell>
        <mxCell id="DrzQErr-66qLM0zfuC4E-32" value="" style="endArrow=none;html=1;rounded=0;entryX=0;entryY=0.5;entryDx=0;entryDy=0;" edge="1" parent="1" target="DrzQErr-66qLM0zfuC4E-8">
          <mxGeometry width="50" height="50" relative="1" as="geometry">
            <mxPoint x="160" y="320" as="sourcePoint" />
            <mxPoint x="210" y="290" as="targetPoint" />
          </mxGeometry>
        </mxCell>
        <mxCell id="DrzQErr-66qLM0zfuC4E-33" value="" style="endArrow=none;html=1;rounded=0;entryX=0.973;entryY=0.333;entryDx=0;entryDy=0;entryPerimeter=0;" edge="1" parent="1" target="DrzQErr-66qLM0zfuC4E-5">
          <mxGeometry width="50" height="50" relative="1" as="geometry">
            <mxPoint x="680" y="240" as="sourcePoint" />
            <mxPoint x="730" y="190" as="targetPoint" />
            <Array as="points">
              <mxPoint x="600" y="160" />
            </Array>
          </mxGeometry>
        </mxCell>
        <mxCell id="DrzQErr-66qLM0zfuC4E-34" value="" style="endArrow=none;html=1;rounded=0;exitX=1;exitY=0.5;exitDx=0;exitDy=0;" edge="1" parent="1" source="DrzQErr-66qLM0zfuC4E-7">
          <mxGeometry width="50" height="50" relative="1" as="geometry">
            <mxPoint x="630" y="340" as="sourcePoint" />
            <mxPoint x="680" y="290" as="targetPoint" />
          </mxGeometry>
        </mxCell>
        <mxCell id="DrzQErr-66qLM0zfuC4E-39" value="" style="endArrow=none;html=1;rounded=0;exitX=1;exitY=0;exitDx=0;exitDy=0;" edge="1" parent="1" source="DrzQErr-66qLM0zfuC4E-8">
          <mxGeometry width="50" height="50" relative="1" as="geometry">
            <mxPoint x="630" y="370" as="sourcePoint" />
            <mxPoint x="680" y="320" as="targetPoint" />
          </mxGeometry>
        </mxCell>
        <mxCell id="DrzQErr-66qLM0zfuC4E-40" value="" style="endArrow=none;html=1;rounded=0;exitX=1;exitY=0;exitDx=0;exitDy=0;" edge="1" parent="1" source="DrzQErr-66qLM0zfuC4E-9">
          <mxGeometry width="50" height="50" relative="1" as="geometry">
            <mxPoint x="520.0000000000001" y="416.98" as="sourcePoint" />
            <mxPoint x="680" y="330" as="targetPoint" />
          </mxGeometry>
        </mxCell>
      </root>
    </mxGraphModel>
  </diagram>
</mxfile>
